<svg width="88" height="66" viewBox="0 0 88 66" fill="none" xmlns="http://www.w3.org/2000/svg">
<path d="M18.9399 0.502924C26.4849 0.502924 31.9513 3.23074 35.3388 8.68638C36.8786 11.0245 38.1105 13.9082 39.0344 17.3375C39.9583 20.7667 40.4202 24.3518 40.4202 28.0928C40.4202 36.1984 38.4184 43.5245 34.4149 50.0713C30.2575 56.618 24.1752 61.7619 16.1682 65.5029L14.0895 61.2943C18.5549 59.4238 22.4814 56.5401 25.869 52.6432C29.1026 48.7463 31.0274 44.7715 31.6433 40.7188C32.1052 38.8482 32.3362 37.0557 32.3362 35.3411C32.3362 33.7823 32.1052 32.3015 31.6433 30.8986C28.2557 34.6396 23.7903 36.5101 18.247 36.5101C12.8576 36.5101 8.46919 34.8734 5.08161 31.6C1.69403 28.4825 0.000247759 24.118 0.000248249 18.5065C0.000248713 13.2068 1.77103 8.84225 5.31259 5.41299C8.85415 2.13961 13.3966 0.502923 18.9399 0.502924ZM66.5199 0.502928C74.065 0.502928 79.5313 3.23075 82.9189 8.68638C84.4587 11.0245 85.6905 13.9082 86.6144 17.3375C87.5383 20.7667 88.0002 24.3518 88.0002 28.0929C88.0002 36.1984 85.9985 43.5245 81.995 50.0713C77.8375 56.618 71.7553 61.7619 63.7483 65.5029L61.6695 61.2943C66.135 59.4238 70.0615 56.5401 73.4491 52.6432C76.6827 48.7463 78.6074 44.7715 79.2233 40.7188C79.6853 38.8483 79.9163 37.0557 79.9163 35.3411C79.9163 33.7823 79.6853 32.3015 79.2233 30.8986C75.8358 34.6396 71.3703 36.5101 65.827 36.5101C60.4377 36.5101 56.0492 34.8734 52.6617 31.6C49.2741 28.4825 47.5803 24.118 47.5803 18.5065C47.5803 13.2068 49.3511 8.84225 52.8926 5.413C56.4342 2.13962 60.9766 0.502927 66.5199 0.502928Z" fill="#4C5057"/>
</svg>
